# xmcd
#
# Track frame offsets: 
#        150
#        16622
#        33602
#        52765
#        68965
#        82807
#        97492
#        113975
#        126847
#        146000
#        159945
#        178032
#        198525
#        212842
#
# Disc length: 3168 seconds
#
# Revision: 5
# Processed by: cddbd v1.5.2PL0 Copyright (c) Steve Scherf et al.
# Submitted via: ExactAudioCopy v0.99pb5
#
DISCID=c20c5e0e
DTITLE=Various Artist - The Songs Of Jimmie Rodgers - A Tribute
DYEAR=1997
DGENRE=Country
TTITLE0=Bono - Dreaming With Tears In My Eyes
TTITLE1=Alison Krauss And Union Station - Any Old Time
TTITLE2=Dickey Betts - Waiting For A Train
TTITLE3=Mary Chapin Carpenter - Somewhere Down Below The Mason Dixon L
TTITLE3=ine
TTITLE4=David Ball - Miss Mississippi And You
TTITLE5=Bob Dylan - My Blue Eyed Jane
TTITLE6=Willie Nelson - Peach Pickin' Time Down In Georgia
TTITLE7=Steve Earle and The V-Roys - Roys
TTITLE8=Jerry Garcia, David Grisman and John Kahn - Blue Yodel # 9
TTITLE9=Iris DeMent - Hobo Bill's Last Ride
TTITLE10=John Mellencamp - Gambling Bar Room Blues
TTITLE11=Van Morrison - Mule Skinner Blues
TTITLE12=Aaron Neville - Why Should I Be Lonely
TTITLE13=Dwight Yoakam - T For Texas
EXTD=
EXTT0=
EXTT1=
EXTT2=
EXTT3=
EXTT4=
EXTT5=
EXTT6=
EXTT7=
EXTT8=
EXTT9=
EXTT10=
EXTT11=
EXTT12=
EXTT13=
PLAYORDER=
